<?xml version="1.0" standalone="no"?>
<!DOCTYPE svg PUBLIC "-//W3C//DTD SVG 20010904//EN"
 "http://www.w3.org/TR/2001/REC-SVG-20010904/DTD/svg10.dtd">
<svg version="1.0" xmlns="http://www.w3.org/2000/svg"
 width="700.000000pt" height="700.000000pt" viewBox="0 0 700.000000 700.000000"
 preserveAspectRatio="xMidYMid meet">
<metadata>
Created by potrace 1.11, written by Peter Selinger 2001-2013
</metadata>
<g transform="translate(0.000000,700.000000) scale(0.100000,-0.100000)"
fill="#000000" stroke="none">
<path d="M4769 5756 c-2 -2 -24 -6 -49 -9 -142 -18 -313 -85 -457 -179 -260
-170 -449 -436 -527 -744 -41 -161 -42 -196 -41 -1369 0 -1122 0 -1131 22
-1220 96 -403 330 -705 681 -880 156 -78 299 -109 502 -110 169 0 230 7 348
41 325 93 625 361 775 691 85 188 112 342 116 646 2 203 2 205 -19 212 -26 8
-715 9 -728 1 -5 -3 -9 -89 -10 -192 0 -103 -6 -210 -12 -238 -30 -127 -137
-284 -234 -341 -127 -75 -282 -82 -414 -19 -76 36 -179 141 -216 219 -56 120
-56 115 -56 1249 0 1027 0 1043 21 1125 30 120 89 217 170 281 128 101 345
111 498 23 87 -50 179 -168 217 -278 20 -57 25 -122 26 -308 1 -92 5 -170 10
-173 10 -7 729 -6 735 0 6 5 4 425 -1 452 -2 12 -7 45 -11 75 -4 30 -9 57 -11
60 -2 3 -6 21 -9 40 -16 96 -104 300 -176 406 -137 204 -340 371 -555 458
-149 60 -241 78 -425 81 -92 2 -168 2 -170 0z"/>
<path d="M935 5682 c-27 -2 -52 -8 -56 -13 -3 -6 -7 -472 -8 -1037 -1 -565 -4
-1540 -6 -2167 -2 -627 -2 -1148 1 -1157 5 -15 53 -16 642 -14 350 2 652 6
670 9 18 3 50 9 72 12 92 14 245 68 350 124 333 176 584 502 670 865 46 192
47 429 4 615 -48 208 -176 451 -311 592 l-35 37 57 58 c137 141 255 333 304
501 36 119 44 181 45 318 1 168 -14 266 -59 402 -94 279 -284 519 -535 675
-137 85 -282 138 -450 164 -86 14 -1189 26 -1355 16z m1255 -769 c263 -60 436
-323 383 -581 -29 -140 -134 -282 -256 -345 -95 -49 -157 -57 -454 -57 l-273
0 0 499 0 499 268 0 c202 0 283 -3 332 -15z m-57 -1757 c171 -55 320 -200 373
-362 25 -78 26 -245 2 -324 -51 -165 -203 -319 -367 -371 -58 -19 -94 -22
-309 -24 l-243 -3 2 536 c2 296 5 545 7 554 4 16 24 17 246 14 182 -3 253 -8
289 -20z"/>
</g>
</svg>
