<svg xmlns="http://www.w3.org/2000/svg" width="25" height="33" viewBox="0 0 25 33">
  <g fill="#7F7F7F" fill-rule="evenodd">
    <path fill-rule="nonzero" d="M4,30 L20.3345931,30 L20.3345931,30 C20.8868778,30 21.3345931,29.5522847 21.3345931,29 L21.3345931,7.76789974 L16.8601156,3 L4,3 L4,3 C3.44771525,3 3,3.44771525 3,4 L3,29 L3,29 C3,29.5522847 3.44771525,30 4,30 Z M18.158903,0 L24.3345931,6.58067247 L24.3345931,30 L24.3345931,30 C24.3345931,31.6568542 22.9914473,33 21.3345931,33 L3,33 L3,33 C1.34314575,33 2.02906125e-16,31.6568542 0,30 L0,3 L0,3 C-2.02906125e-16,1.34314575 1.34314575,2.08071603e-15 3,1.77635684e-15 L18.158903,0 Z"/>
    <path d="M10.9973136,18.1524513 C11.034923,18.1524513 11.0725317,18.159503 11.110141,18.1736064 C11.1477504,18.1877099 11.1837921,18.2119989 11.2182673,18.2464741 L11.8482203,18.9093351 C11.5724186,19.2697578 11.2268881,19.5416378 10.8116185,19.7249832 C10.3963489,19.9083287 9.90508455,20 9.33781061,20 C8.81754833,20 8.35135644,19.9114627 7.93922095,19.7343855 C7.52708547,19.5573083 7.17763743,19.3128513 6.89086635,19.0010074 C6.60409528,18.6891634 6.38392734,18.319344 6.23035594,17.8915379 C6.07678455,17.4637319 6,16.9991071 6,16.4976494 C6,15.9867895 6.08775377,15.5174635 6.26326394,15.0896575 C6.4387741,14.6618515 6.68401454,14.2928155 6.99899261,13.9825386 C7.31397068,13.6722617 7.69084177,13.4309389 8.12961719,13.2585628 C8.56839261,13.0861867 9.05260537,13 9.58226998,13 C9.83926701,13 10.0813734,13.022722 10.3085964,13.0681666 C10.5358194,13.1136112 10.7481521,13.1762924 10.9456011,13.2562122 C11.14305,13.336132 11.3248257,13.431721 11.4909335,13.5429819 C11.6570413,13.6542428 11.8043423,13.7772548 11.9328408,13.9120215 L11.3969107,14.6312962 C11.3624355,14.6751737 11.3216926,14.715133 11.274681,14.7511753 C11.2276693,14.7872176 11.161854,14.8052384 11.077233,14.8052384 C11.0208191,14.8052384 10.96754,14.7927022 10.9173942,14.7676293 C10.8672485,14.7425564 10.8139694,14.7119993 10.7575554,14.675957 C10.7011414,14.6399148 10.6392437,14.600739 10.5718603,14.5584285 C10.5044769,14.516118 10.4245583,14.4769422 10.3321021,14.4408999 C10.2396458,14.4048577 10.1315207,14.3743006 10.0077233,14.3492277 C9.88392595,14.3241548 9.73897553,14.3116185 9.5728677,14.3116185 C9.28452956,14.3116185 9.02126826,14.3625471 8.78307589,14.4644056 C8.54488352,14.5662642 8.3403859,14.7119982 8.1695769,14.9016118 C7.99876789,15.0912255 7.86557021,15.3207956 7.76997985,15.5903291 C7.67438949,15.8598626 7.62659503,16.1622996 7.62659503,16.4976494 C7.62659503,16.8486698 7.67438949,17.160509 7.76997985,17.4331766 C7.86557021,17.7058442 7.99563383,17.9354143 8.16017461,18.1218939 C8.3247154,18.3083734 8.51667676,18.4501898 8.73606447,18.5473472 C8.95545218,18.6445046 9.19050692,18.6930826 9.44123573,18.6930826 C9.5854048,18.6930826 9.71703545,18.686031 9.83613163,18.6719275 C9.95522782,18.657824 10.0657035,18.633535 10.1675621,18.5990598 C10.2694207,18.5645846 10.3665767,18.5199242 10.4590329,18.4650772 C10.5514892,18.4102303 10.6447275,18.3420644 10.7387508,18.2605776 C10.7763602,18.2292365 10.817103,18.2033804 10.8609805,18.1830087 C10.9048581,18.162637 10.950302,18.1524513 10.9973136,18.1524513 Z M12.1448196,13.0752183 L13.4235301,13.0752183 C13.561431,13.0752183 13.6742573,13.1065589 13.7620123,13.1692411 C13.8497674,13.2319233 13.9124487,13.314976 13.950058,13.4184016 L15.27578,17.0852921 C15.3353281,17.2451318 15.3956588,17.4190723 15.4567739,17.6071189 C15.5178891,17.7951655 15.5750857,17.9926115 15.6283656,18.1994627 C15.6722431,17.9926115 15.7231717,17.7951655 15.7811527,17.6071189 C15.8391337,17.4190723 15.8963304,17.2451318 15.9527444,17.0852921 L17.2690641,13.4184016 C17.3004052,13.3306465 17.3615194,13.2515114 17.4524086,13.180994 C17.5432978,13.1104765 17.654557,13.0752183 17.7861896,13.0752183 L19.0743025,13.0752183 L16.3288357,19.9247817 L14.8902864,19.9247817 L12.1448196,13.0752183 Z"/>
  </g>
</svg>
