<svg xmlns="http://www.w3.org/2000/svg" width="30" height="30" viewBox="0 0 30 30">
  <path fill="#7F7F7F" fill-rule="evenodd" d="M15.0041379,0 C23.2862069,0 30,6.7137931 30,14.9958621 C30,23.277931 23.2862069,29.9896552 15.0041379,29.9896552 C6.72206897,29.9896552 0.0103448276,23.277931 0.0103448276,14.9958621 C0.0103448276,6.7137931 6.72206897,0 15.0041379,0 Z M27.8571429,15 C27.8180762,12.0257152 26.7495513,9.29567775 24.9862739,7.14285714 L24.9862739,7.14494473 C24.9862739,7.14494473 23.0852075,9.89324856 17.8571429,12.1029558 C18.2303875,12.8696209 18.5999366,13.6769939 18.9562876,14.518812 C20.0575441,14.3314513 21.1899483,14.2333349 22.3445254,14.2333349 C24.2582621,14.2333349 26.1060078,14.5005456 27.8571429,15 Z M15.1108026,2.14285714 C14.0903758,2.14285714 13.094456,2.26930753 12.1428571,2.5022991 C12.1428571,2.5022991 14.4710153,5.2981979 16.9253582,10 C19.4693859,8.96149255 21.8507293,7.50273935 23.5714286,5.45747158 L23.5714286,5.45585732 C21.3209625,3.39552312 18.3571885,2.14285714 15.1108026,2.14285714 Z M9.70627863,3.57142857 C6.24783462,5.20706027 3.66914322,8.35421341 2.85714286,12.1420983 L2.85919596,12.1420983 C2.85919596,12.1420983 8.54114537,12.2268565 14.2857143,10.6048467 C11.9015539,6.34019684 9.70627863,3.57142857 9.70627863,3.57142857 Z M2.14285714,14.9677553 C2.14285714,18.2767796 3.34587445,21.2922403 5.32179125,23.5714286 C7.6566444,19.5445124 11.336373,16.4592057 15.7142857,14.9824597 C15.392707,14.2498635 15.0650703,13.539849 14.7379385,12.8571429 C11.556985,13.9074601 7.427955,14.6600123 2.14689581,14.6316538 C2.14285714,14.7419371 2.14285714,14.8548462 2.14285714,14.9677553 Z M15.0254944,27.8571429 C16.7866448,27.8571429 18.4669696,27.5094133 20,26.879812 C19.509728,23.4820726 18.4818585,20.1644164 17.2482024,17.1428571 C12.9357234,18.4705519 9.32993802,21.3951683 7.14285714,25.2207205 C9.32993802,26.8734897 12.0615292,27.8571429 15.0254944,27.8571429 Z M22.2931444,25.7142857 C25.1775729,23.8029067 27.2430968,20.7721855 27.8571429,17.2478837 C26.174339,16.7154881 24.3814304,16.4285714 22.5202356,16.4285714 C21.6642766,16.4285714 20.82261,16.4899412 20,16.6069109 C21.0089412,19.3585833 21.8442556,22.4197271 22.2931444,25.7142857 Z"/>
</svg>
