<svg xmlns="http://www.w3.org/2000/svg" width="30" height="30" viewBox="0 0 30 30" xmlns:xlink="http://www.w3.org/1999/xlink">
  <defs>
    <polygon id="a" points="0 29.925 0 0 30 0 30 29.925"/>
  </defs>
  <g fill="none" fill-rule="evenodd">
    <mask id="b" fill="white">
      <use xlink:href="#a"/>
    </mask>
    <path fill="#7F7F7F" d="M15,0 C6.71375,0 5.42101086e-20,6.71375 5.42101086e-20,15 C-0.05375,22.11875 4.815,28.34 11.73875,30 C11.92375,30.04375 12.12375,29.995 12.27,29.8725 C12.4225,29.75125 12.505,29.565 12.5,29.375 L12.5,25.625 C12.5,25.27875 12.22125,25 11.875,25 L10.625,25 C9.0625,25 7.9975,23.525 7.06,22.2125 L6.7775,21.81125 C7.2125,22.04625 7.63125,22.315 8.0275,22.6125 C8.735,23.2525 9.63375,23.6475 10.58625,23.735 L10.77625,23.735 C11.26,23.745 11.72375,23.545 12.05125,23.18875 C12.3775,22.8325 12.54375,22.35875 12.5,21.875 L12.5,21.435 C12.5,21.1625 12.315,20.9125 12.05125,20.84 C8.57375,19.84875 6.25,17.26125 6.25,14.375 C6.27875,12.8125 6.91875,11.3275 8.0375,10.23875 C8.2175,10.04875 8.26125,9.77 8.15,9.53625 C7.695,8.50625 7.76375,7.31875 8.34,6.3475 C9.21375,6.70375 9.995,7.25625 10.625,7.96375 C10.79125,8.16375 11.065,8.2375 11.31375,8.15 C13.69125,7.29 16.29375,7.29 18.67625,8.15 C18.92125,8.2375 19.19375,8.16375 19.36,7.96375 C19.99,7.25625 20.77125,6.70375 21.65,6.3475 C22.22125,7.31875 22.29,8.50625 21.83625,9.53625 C21.72875,9.77 21.7725,10.04875 21.94875,10.23875 C23.07125,11.32375 23.72125,12.8125 23.75,14.375 C23.75,17.4025 21.1625,20.1125 17.5,20.9625 C17.31,21.00625 17.15375,21.1325 17.07,21.31375 C16.9925,21.48875 16.9975,21.69 17.09,21.86 C17.43625,22.64625 17.5875,23.50625 17.53875,24.36 L17.53875,29.36 C17.53875,29.7075 17.8175,29.985 18.16375,29.985 L18.30125,29.985 C25.205,28.31 30.04875,22.105 30,15 C30,6.71375 23.28625,0 15,0" mask="url(#b)"/>
  </g>
</svg>
