<svg xmlns="http://www.w3.org/2000/svg" width="30" height="25" viewBox="0 0 30 25" xmlns:xlink="http://www.w3.org/1999/xlink">
  <defs>
    <polygon id="a" points=".069 .182 .069 30.182 29.541 30.182 29.541 .182 .069 .182"/>
  </defs>
  <g fill="none" fill-rule="evenodd" transform="translate(0 -3)">
    <mask id="b" fill="white">
      <use xlink:href="#a"/>
    </mask>
    <path fill="#7F7F7F" d="M1.84846154,3.23076923 C5.53961538,6.92307692 9.23076923,10.6142308 13.8461538,9.69461538 C13.1296154,5.86730769 16.4826923,2.51423077 20.31,3.23076923 C21.7292308,3.34846154 23.0538462,4.01076923 24.0011538,5.07923077 C25.7042308,5.01115385 27.3357692,4.36269231 28.6165385,3.23076923 C28.1111538,4.72730769 27.1384615,6.02076923 25.8438462,6.92307692 C27.1384615,6.945 28.4088462,6.62538462 29.5407692,5.99884615 C28.7965385,7.63961538 27.4846154,8.95038462 25.8438462,9.69461538 C26.3757692,19.2276923 18.7811538,27.2457692 9.23076923,27.2319231 C5.94923077,27.2411538 2.73576923,26.2765385 0,24.4603846 C2.71730769,24.4730769 5.34576923,23.4911538 7.38230769,21.6923077 C5.4,21.1557692 3.72692308,19.8173077 2.76692308,18.0011538 C3.71423077,18.0242308 4.65115385,17.8661538 5.53961538,17.5373077 C2.35730769,16.7169231 0.0992307692,13.8992308 0,10.6142308 C0.851538462,11.1057692 1.79423077,11.4161538 2.76692308,11.5384615 C0.775384615,9.22615385 0.406153846,5.92615385 1.84846154,3.23076923" mask="url(#b)"/>
  </g>
</svg>
